<mxfile host="app.diagrams.net" modified="2023-06-22T17:08:01.079Z" agent="Mozilla/5.0 (Macintosh; Intel Mac OS X 10_15_7) AppleWebKit/537.36 (KHTML, like Gecko) Chrome/114.0.0.0 Safari/537.36" etag="07QE2u3SLpOtzN-0Njbo" version="21.5.0" type="github">
  <diagram name="Page-1" id="OB18HWdXUVx33aaa9B82">
    <mxGraphModel dx="893" dy="596" grid="1" gridSize="10" guides="1" tooltips="1" connect="1" arrows="1" fold="1" page="1" pageScale="1" pageWidth="850" pageHeight="1100" math="0" shadow="0">
      <root>
        <mxCell id="0" />
        <mxCell id="1" parent="0" />
        <mxCell id="LCjaZ_-60pubY-apfOdA-5" value="&lt;h2 style=&quot;&quot;&gt;Fitsum&#39;s Todo List App&lt;br&gt;What&#39;s Your Plan For Today?&lt;/h2&gt;" style="text;html=1;align=center;verticalAlign=middle;resizable=0;points=[];autosize=1;strokeColor=none;fillColor=none;" vertex="1" parent="1">
          <mxGeometry x="185" y="178" width="270" height="90" as="geometry" />
        </mxCell>
        <mxCell id="LCjaZ_-60pubY-apfOdA-6" value="" style="endArrow=none;html=1;rounded=0;" edge="1" parent="1">
          <mxGeometry width="50" height="50" relative="1" as="geometry">
            <mxPoint x="320" y="560" as="sourcePoint" />
            <mxPoint x="320" y="560" as="targetPoint" />
            <Array as="points">
              <mxPoint x="320" y="560" />
              <mxPoint x="120" y="560" />
              <mxPoint x="120" y="160" />
              <mxPoint x="520" y="160" />
              <mxPoint x="520" y="560" />
            </Array>
          </mxGeometry>
        </mxCell>
        <mxCell id="LCjaZ_-60pubY-apfOdA-7" value="" style="rounded=1;whiteSpace=wrap;html=1;" vertex="1" parent="1">
          <mxGeometry x="150" y="280" width="220" height="40" as="geometry" />
        </mxCell>
        <mxCell id="LCjaZ_-60pubY-apfOdA-8" value="" style="rounded=1;whiteSpace=wrap;html=1;" vertex="1" parent="1">
          <mxGeometry x="420" y="275" width="80" height="50" as="geometry" />
        </mxCell>
        <mxCell id="LCjaZ_-60pubY-apfOdA-9" value="&lt;h1&gt;This is the view of my todo list app.&lt;/h1&gt;" style="text;html=1;align=center;verticalAlign=middle;resizable=0;points=[];autosize=1;strokeColor=none;fillColor=none;" vertex="1" parent="1">
          <mxGeometry x="120" y="60" width="430" height="70" as="geometry" />
        </mxCell>
        <mxCell id="LCjaZ_-60pubY-apfOdA-10" style="edgeStyle=orthogonalEdgeStyle;rounded=0;orthogonalLoop=1;jettySize=auto;html=1;" edge="1" parent="1" source="LCjaZ_-60pubY-apfOdA-9" target="LCjaZ_-60pubY-apfOdA-9">
          <mxGeometry relative="1" as="geometry" />
        </mxCell>
        <mxCell id="LCjaZ_-60pubY-apfOdA-11" style="edgeStyle=orthogonalEdgeStyle;rounded=0;orthogonalLoop=1;jettySize=auto;html=1;" edge="1" parent="1" source="LCjaZ_-60pubY-apfOdA-9">
          <mxGeometry relative="1" as="geometry">
            <mxPoint x="320" y="160" as="targetPoint" />
          </mxGeometry>
        </mxCell>
      </root>
    </mxGraphModel>
  </diagram>
</mxfile>
